<svg id="Layer_1" data-name="Layer 1" xmlns="http://www.w3.org/2000/svg" viewBox="0 0 115.24 39.09">
  <defs>
    <style>.cls-1{fill:#fff;}.cls-1,.cls-2{fill-rule:evenodd;}.cls-2{fill:#e53137;}</style>
  </defs>
  <title>gallifortLogo</title>
  <g id="Graphics">
    <path class="cls-1"
          d="M50.64,17.66a2.85,2.85,0,0,0-1,.32,2.69,2.69,0,0,0-.79.58,3,3,0,0,0-.54.8,3.13,3.13,0,0,0-.29,1,10,10,0,0,0-.06,1.5v.55c0,.2,0,.41,0,.65s0,.54,0,.83l-2,.28v1.49l2.05,0V35.83h2.51V25.69l3.3,0V24l-3.3,0c0-.6,0-1.2,0-1.69s0-.85,0-1.13a2.25,2.25,0,0,1,.08-.61,1.39,1.39,0,0,1,.17-.39,1.37,1.37,0,0,1,.24-.29.92.92,0,0,1,.31-.2,1.56,1.56,0,0,1,.45-.11,3.62,3.62,0,0,1,.68,0l.79.08.92.11.23-1.59a13.34,13.34,0,0,0-2.08-.38,7.22,7.22,0,0,0-1.6,0Z"
          transform="translate(-2 -2)"/>
    <polygon class="cls-1" points="27.45 33.83 29.96 33.83 29.96 15.96 27.45 15.96 27.45 33.83 27.45 33.83"/>
    <polygon class="cls-1" points="33.41 33.83 35.92 33.83 35.92 15.96 33.41 15.96 33.41 33.83 33.41 33.83"/>
    <path class="cls-1"
          d="M83,33.28l-1,.33a8,8,0,0,1-1.09.34,3.54,3.54,0,0,1-.59.09h-.27a2.07,2.07,0,0,1-.64-.14,1.93,1.93,0,0,1-.55-.32,2.57,2.57,0,0,1-.47-.51,3,3,0,0,1-.35-.72,6.49,6.49,0,0,1-.25-1.12,8.36,8.36,0,0,1-.09-1.45,10.8,10.8,0,0,1,.14-1.47,6,6,0,0,1,.27-1.06,2.86,2.86,0,0,1,.38-.7,2,2,0,0,1,.51-.44,2.24,2.24,0,0,1,.67-.27,4.12,4.12,0,0,1,.65-.08h.2a5.22,5.22,0,0,1,1.13.19,9,9,0,0,1,1.3.49v6.83ZM98.22,18H82.91v7a8.3,8.3,0,0,0-1.34-.8,4.83,4.83,0,0,0-1.22-.4h0a4.94,4.94,0,0,0-1.21,0,3.66,3.66,0,0,0-1.08.28,4,4,0,0,0-1,.63,4.42,4.42,0,0,0-.85.92,5.42,5.42,0,0,0-.62,1.3,9.06,9.06,0,0,0-.42,1.74,10.6,10.6,0,0,0-.08,1.28V30c0,.2,0,.39,0,.59a11.46,11.46,0,0,0,.27,1.95A6.68,6.68,0,0,0,75.9,34a4.31,4.31,0,0,0,.68,1,3.36,3.36,0,0,0,.86.65,3.68,3.68,0,0,0,1,.37,3.81,3.81,0,0,0,1.18.06,6.38,6.38,0,0,0,.69-.13,8.05,8.05,0,0,0,.79-.26A13,13,0,0,0,83,34.84l0,1h2.44V19.94h5V35.83h2.72V19.94h5V18Z"
          transform="translate(-2 -2)"/>
    <path class="cls-1"
          d="M12.29,27.91v5.65a17.37,17.37,0,0,1-2.17.42,5.22,5.22,0,0,1-1.43,0,4.59,4.59,0,0,1-1.13-.31,4.22,4.22,0,0,1-.95-.55,4.42,4.42,0,0,1-.73-.77,3.21,3.21,0,0,1-.51-1.05A11.94,11.94,0,0,1,5,29.48a15.66,15.66,0,0,1-.17-2.19A11.74,11.74,0,0,1,5,25.18a9.68,9.68,0,0,1,.42-1.69A4.75,4.75,0,0,1,6,22.36a2.81,2.81,0,0,1,.68-.73,3,3,0,0,1,.87-.48,4.13,4.13,0,0,1,1.17-.26,7.38,7.38,0,0,1,1.55,0c.56.06,1.14.17,1.54.25l.93.21,1.21.27.46-1.88A20.24,20.24,0,0,0,11,19a11.9,11.9,0,0,0-2.73-.12,7.25,7.25,0,0,0-2.07.47,6.1,6.1,0,0,0-1.6,1,5.9,5.9,0,0,0-1.21,1.41,8,8,0,0,0-.84,1.86,12.16,12.16,0,0,0-.5,2.35A17.11,17.11,0,0,0,2,28.57a11.7,11.7,0,0,0,.36,2.36,8.37,8.37,0,0,0,.76,1.9,7.78,7.78,0,0,0,1.08,1.5,6.73,6.73,0,0,0,1.29,1.09A4.3,4.3,0,0,0,6.93,36a7.39,7.39,0,0,0,1.85.18,10.8,10.8,0,0,0,2.52-.3,26.74,26.74,0,0,0,3.6-1.18l0-6.79Z"
          transform="translate(-2 -2)"/>
    <path class="cls-1"
          d="M23.8,33.45c-.46.18-.92.35-1.31.46s-.56.16-.77.2l-.19,0a2,2,0,0,1-.58,0,1.57,1.57,0,0,1-.41-.08,1.4,1.4,0,0,1-.32-.18.93.93,0,0,1-.25-.27,2,2,0,0,1-.2-.41,2.82,2.82,0,0,1-.12-.52,2.37,2.37,0,0,1,0-.53,2.21,2.21,0,0,1,.11-.51,2,2,0,0,1,.23-.46,1.51,1.51,0,0,1,.33-.38,1.72,1.72,0,0,1,.45-.26,3.87,3.87,0,0,1,.95-.23h0c.51-.08,1.3-.18,2.08-.25v3.37Zm2.17-8a3.06,3.06,0,0,0-.43-.75,2.6,2.6,0,0,0-.67-.56,2.4,2.4,0,0,0-.84-.37,5.83,5.83,0,0,0-1.35-.09c-.29,0-.61,0-1,.05s-.68.07-1.07.14a20.68,20.68,0,0,0-2.68.68l.26,1.63c.95-.17,1.91-.31,2.57-.38a7.27,7.27,0,0,1,.92-.07h.39a3.12,3.12,0,0,1,.71.11,1.83,1.83,0,0,1,.44.2.94.94,0,0,1,.27.29,1.54,1.54,0,0,1,.18.47,4.27,4.27,0,0,1,.09.67c0,.19,0,.28,0,.46s0,.45,0,.72c-.75,0-1.51,0-2.14,0l-.6.05A7.71,7.71,0,0,0,19.6,29a5,5,0,0,0-1,.41,2.57,2.57,0,0,0-.64.51,3.19,3.19,0,0,0-.46.69,4,4,0,0,0-.31.9,4.43,4.43,0,0,0-.09,1,5.3,5.3,0,0,0,.14,1,4.75,4.75,0,0,0,.34.92,3.16,3.16,0,0,0,1.13,1.23,3.15,3.15,0,0,0,.76.32,2.75,2.75,0,0,0,.82.11,3.93,3.93,0,0,0,1-.17l.4-.14c.31-.11.65-.26,1-.4a8.68,8.68,0,0,0,1.21-.68l0,1.06h2.34c0-1.63.06-3.27.06-4.71v-.19c0-1.28,0-2.39,0-3.19a6,6,0,0,0-.3-2.33Z"
          transform="translate(-2 -2)"/>
    <path class="cls-1"
          d="M72.92,23.87a5.29,5.29,0,0,0-1.27.43,6.09,6.09,0,0,0-1.17.71l-.06-1.1H68V35.83h2.54V26.6l.42-.14.3-.11.18-.06a5.45,5.45,0,0,1,1.31-.3,9.55,9.55,0,0,1,1.51,0V23.81a5.21,5.21,0,0,0-1.37.06Z"
          transform="translate(-2 -2)"/>
    <polygon class="cls-1" points="39.37 21.91 39.37 33.83 41.87 33.83 41.83 21.95 39.37 21.91 39.37 21.91"/>
    <path class="cls-1"
          d="M115,23.94l-3,8.82-3.38-8.86-2.71.05,4.87,11.77c-.33.88-.7,1.75-1,2.29a3.66,3.66,0,0,1-.58.93,1.33,1.33,0,0,1-.42.29,2.88,2.88,0,0,1-.47.15,2.11,2.11,0,0,1-.65,0,7.67,7.67,0,0,1-1.1-.16l-.21,1.64a13.32,13.32,0,0,0,1.94.19,4.71,4.71,0,0,0,1.23-.1,2.61,2.61,0,0,0,.83-.36,3.55,3.55,0,0,0,.69-.62c.23-.26.49-.59,1.53-3.28s2.88-7.74,4.62-12.81l-2.22,0Z"
          transform="translate(-2 -2)"/>
    <path class="cls-1"
          d="M43.64,19.11a1.37,1.37,0,0,0-.49-.33,1.39,1.39,0,0,0-.57-.12,1.53,1.53,0,0,0-1.07.45,1.58,1.58,0,0,0-.44,1.06,1.47,1.47,0,0,0,.12.58,1.42,1.42,0,0,0,.81.81,1.47,1.47,0,0,0,.58.12,1.39,1.39,0,0,0,.57-.12,1.34,1.34,0,0,0,.49-.32,1.53,1.53,0,0,0,.45-1.07A1.42,1.42,0,0,0,44,19.6a1.46,1.46,0,0,0-.33-.49Z"
          transform="translate(-2 -2)"/>
    <path class="cls-1"
          d="M62.75,30.79a6.64,6.64,0,0,1-.25,1.27,4.07,4.07,0,0,1-.4.91,2.61,2.61,0,0,1-.52.61A2.38,2.38,0,0,1,61,34a2.29,2.29,0,0,1-.76.18l-.33,0a4,4,0,0,1-.5,0,2.72,2.72,0,0,1-.73-.24,2.47,2.47,0,0,1-.61-.45,3.15,3.15,0,0,1-.5-.69,4.68,4.68,0,0,1-.37-1,7.15,7.15,0,0,1-.2-1.34,9.83,9.83,0,0,1,0-1.54,6.64,6.64,0,0,1,.25-1.27,4.07,4.07,0,0,1,.4-.91,2.94,2.94,0,0,1,.52-.62,2.25,2.25,0,0,1,.64-.39,2.65,2.65,0,0,1,.76-.19l.31,0a4.22,4.22,0,0,1,.52,0,2.72,2.72,0,0,1,.73.24,2.32,2.32,0,0,1,.6.44,3,3,0,0,1,.49.68,4.45,4.45,0,0,1,.38,1,8.25,8.25,0,0,1,.19,1.36,11.44,11.44,0,0,1,0,1.55Zm1.88-4.32a5.44,5.44,0,0,0-1-1.44,4.58,4.58,0,0,0-1.37-.94,5.45,5.45,0,0,0-1.7-.43q-.33,0-.66,0a6.89,6.89,0,0,0-1.21.11,5,5,0,0,0-1.59.6,4.91,4.91,0,0,0-1.27,1.1,6.34,6.34,0,0,0-.92,1.62,7.54,7.54,0,0,0-.48,2.08c0,.22,0,.45,0,.68V30a9.49,9.49,0,0,0,.13,1.42,6.92,6.92,0,0,0,.65,1.94,5.66,5.66,0,0,0,1,1.45,4.74,4.74,0,0,0,1.37.93,5.45,5.45,0,0,0,1.7.44c.21,0,.41,0,.62,0a7.27,7.27,0,0,0,1.25-.11,4.83,4.83,0,0,0,1.59-.61A4.69,4.69,0,0,0,64,34.38a5.84,5.84,0,0,0,.92-1.61,7.92,7.92,0,0,0,.48-2.08c0-.22,0-.45,0-.67v-.17a8.26,8.26,0,0,0-.13-1.43,6.87,6.87,0,0,0-.64-2Z"
          transform="translate(-2 -2)"/>
    <path class="cls-1"
          d="M103,23.87a5.29,5.29,0,0,0-1.27.43,6.77,6.77,0,0,0-1.17.71l-.06-1.1h-2.4V35.83h2.54V26.6l.43-.14.29-.11.18-.06a5.45,5.45,0,0,1,1.31-.3,9.55,9.55,0,0,1,1.51,0V23.81a5.23,5.23,0,0,0-1.37.06Z"
          transform="translate(-2 -2)"/>
    <path class="cls-1"
          d="M72.53,17.26a14.54,14.54,0,0,0,4.15-2.11,17.85,17.85,0,0,0,3.48-3.4,10.85,10.85,0,0,0,1.93-3.68,16,16,0,0,0,.58-4.57h0l-.07.15.07-.15V2.77h0a20.33,20.33,0,0,1-1.61,2.9,20.39,20.39,0,0,1-1.94,2.44,15.47,15.47,0,0,1-2,1.83,8.06,8.06,0,0,1-1.79,1,8.92,8.92,0,0,1-1.55.45,5.86,5.86,0,0,1-1,.08l-.95,0-.82.08-.87.08a9.2,9.2,0,0,0-1.73.33,7.51,7.51,0,0,0-1.8.88,9,9,0,0,0-1.48,1.16,4.89,4.89,0,0,0-1,1.35,7.72,7.72,0,0,0-.57,1.68v0a23.49,23.49,0,0,0,2.44.73,7.32,7.32,0,0,0,2.46.22,17.3,17.3,0,0,0,4-.8Z"
          transform="translate(-2 -2)"/>
    <path class="cls-2"
          d="M78.66,3h0a22.91,22.91,0,0,0-2.4-.73A7.38,7.38,0,0,0,73.76,2a17.88,17.88,0,0,0-4,.8,14.66,14.66,0,0,0-4.15,2.11,18.19,18.19,0,0,0-3.49,3.4A10.69,10.69,0,0,0,60.21,12a15.87,15.87,0,0,0-.59,4.51v0l0,.72a19.35,19.35,0,0,1,1.6-2.9,20.39,20.39,0,0,1,1.94-2.44,14.88,14.88,0,0,1,2-1.83,7.64,7.64,0,0,1,1.79-1,8.6,8.6,0,0,1,1.54-.45,6,6,0,0,1,.95-.08l1,0,.82-.08.87-.08A9.5,9.5,0,0,0,73.84,8a7.63,7.63,0,0,0,1.79-.88A9,9,0,0,0,77.11,6a4.89,4.89,0,0,0,1-1.35,7.75,7.75,0,0,0,.55-1.58.59.59,0,0,1,0-.08Z"
          transform="translate(-2 -2)"/>
  </g>
</svg>