<svg id="Layer_1" data-name="Layer 1" xmlns="http://www.w3.org/2000/svg" viewBox="0 0 29.8 19.8">
  <defs>
    <style>.cls-1{fill:#202230;}</style>
  </defs>
  <title>speechRight</title>
  <path class="cls-1"
        d="M21.17,1H30.8L29.2,8.61q-1.39,6.6-4.38,9.35a11.41,11.41,0,0,1-7.77,2.84L18,16.38a7.24,7.24,0,0,0,3.68-1.93,8.91,8.91,0,0,0,2-4.25H19.24Zm-16,0h9.6L13.19,8.61Q11.8,15.21,8.79,18A11.48,11.48,0,0,1,1,20.8l.93-4.42a7.31,7.31,0,0,0,3.69-1.93,9.2,9.2,0,0,0,2-4.25H3.23Z"
        transform="translate(-1 -1)"/>
</svg>